<svg xmlns="http://www.w3.org/2000/svg" viewBox="0 0 512 512">
  <path fill="currentColor" d="M256.052345,161.627417 L33.3137085,384.366053 C27.0653198,390.614442 16.9346802,390.614442 10.6862915,384.366053 C4.43790283,378.117664 4.43790283,367.987025 10.6862915,361.738636 L244.738636,127.686292 C250.987025,121.437903 261.117664,121.437903 267.366053,127.686292 L501.418398,361.738636 C507.666786,367.987025 507.666786,378.117664 501.418398,384.366053 C495.170009,390.614442 485.039369,390.614442 478.790981,384.366053 L256.052345,161.627417 Z" id="line_arrow_up" />
  <path fill="currentColor" d="M483,389.052345 C479,389.052345 328.132476,389.052345 30.3974287,389.052345 C21.0837202,389.052345 16.9346802,389.001114 10.6862915,382.752725 C4.43790283,376.504337 4.43790283,366.373697 10.6862915,360.125308 L244.738636,126.072964 C250.987025,119.824575 261.117664,119.824575 267.366053,126.072964 L501.418398,360.125308 C507.666786,366.373697 507.666786,376.504337 501.418398,382.752725 C495.170009,389.001114 489,389.052345 483,389.052345 Z" id="filled_arrow_up" />
  <path fill="currentColor" d="M256.052345,350.424928 L478.790981,127.686292 C485.039369,121.437903 495.170009,121.437903 501.418398,127.686292 C507.666786,133.93468 507.666786,144.06532 501.418398,150.313708 L267.366053,384.366053 C261.117664,390.614442 250.987025,390.614442 244.738636,384.366053 L10.6862915,150.313708 C4.43790283,144.06532 4.43790283,133.93468 10.6862915,127.686292 C16.9346802,121.437903 27.0653198,121.437903 33.3137085,127.686292 L256.052345,350.424928 Z" id="line_arrow_down">
  <path fill="currentColor" d="M483,121.386672 C489,121.386672 495.170009,121.437903 501.418398,127.686292 C507.666786,133.93468 507.666786,144.06532 501.418398,150.313708 L267.366053,384.366053 C261.117664,390.614442 250.987025,390.614442 244.738636,384.366053 L10.6862915,150.313708 C4.43790283,144.06532 4.43790283,133.93468 10.6862915,127.686292 C16.9346802,121.437903 21.0837202,121.386672 30.3974287,121.386672 C328.132476,121.386672 479,121.386672 483,121.386672 Z" id="filled_arrow_down" />
  <path fill="currentColor" d="M161.653589,256.026172 L384.392225,478.764808 C390.640614,485.013197 390.640614,495.143837 384.392225,501.392225 C378.143837,507.640614 368.013197,507.640614 361.764808,501.392225 L127.712464,267.339881 C121.464075,261.091492 121.464075,250.960852 127.712464,244.712464 L361.764808,10.6601192 C368.013197,4.41173055 378.143837,4.41173055 384.392225,10.6601192 C390.640614,16.9085079 390.640614,27.0391475 384.392225,33.2875362 L161.653589,256.026172 Z" id="line_arrow_left" />
  <path fill="currentColor" d="M389.885181,28.2718529 C389.885181,32.2718529 389.885181,183.139377 389.885181,480.874424 C389.885181,490.188133 389.83395,494.337173 383.585561,500.585561 C377.337173,506.83395 367.206533,506.83395 360.958144,500.585561 L126.9058,266.533217 C120.657411,260.284828 120.657411,250.154189 126.9058,243.9058 L360.958144,9.85345527 C367.206533,3.6050666 377.337173,3.6050666 383.585561,9.85345527 C389.83395,16.1018439 389.885181,22.2718529 389.885181,28.2718529 Z" id="filled_arrow_left">
    <path fill="currentColor" d="M350.4511,256.026172 L127.712464,33.2875362 C121.464075,27.0391475 121.464075,16.9085079 127.712464,10.6601192 C133.960852,4.41173055 144.091492,4.41173055 150.339881,10.6601192 L384.392225,244.712464 C390.640614,250.960852 390.640614,261.091492 384.392225,267.339881 L150.339881,501.392225 C144.091492,507.640614 133.960852,507.640614 127.712464,501.392225 C121.464075,495.143837 121.464075,485.013197 127.712464,478.764808 L350.4511,256.026172 Z" id="line_arrow_right" />
    <path d="M122.219508,28.2718529 C122.219508,22.2718529 122.270739,16.1018439 128.519128,9.85345527 C134.767516,3.6050666 144.898156,3.6050666 151.146545,9.85345527 L385.198889,243.9058 C391.447278,250.154189 391.447278,260.284828 385.198889,266.533217 L151.146545,500.585561 C144.898156,506.83395 134.767516,506.83395 128.519128,500.585561 C122.270739,494.337173 122.219508,490.188133 122.219508,480.874424 L122.219508,28.2718529 Z" id="filled_arrow_right" />
    <path fill="currentColor" fill-rule="evenodd" clip-rule="evenodd" d="M149 6C70.0233 6 6 70.0233 6 149C6 227.977 70.0233 292 149 292H363.5C442.477 292 506.5 227.977 506.5 149C506.5 70.0233 442.477 6 363.5 6H149ZM354.562 220.5C394.051 220.5 426.062 188.488 426.062 149C426.062 109.512 394.051 77.5 354.562 77.5C332.269 77.5 312.359 87.7025 299.247 103.693C287.674 117.806 272.558 131.125 254.307 131.125H166.875C157.003 131.125 149 139.128 149 149C149 158.872 157.003 166.875 166.875 166.875H254.307C272.558 166.875 287.674 180.194 299.247 194.307C312.359 210.297 332.269 220.5 354.562 220.5Z" id="filled_logo"/>
</svg>
