<svg xmlns="http://www.w3.org/2000/svg" viewBox="0 0 512 512">
  <path fill="currentColor" d="M94,490 C94,498.836556 86.836556,506 78,506 C69.163444,506 62,498.836556 62,490 L62,413 C62,359.980664 104.980664,317 158,317 L354,317 C407.019336,317 450,359.980664 450,413 L450,490 C450,498.836556 442.836556,506 434,506 C425.163444,506 418,498.836556 418,490 L418,413 C418,377.653776 389.346224,349 354,349 L158,349 C122.653776,349 94,377.653776 94,413 L94,490 Z M256,260 C185.859837,260 129,203.140163 129,133 C129,62.8598368 185.859837,6 256,6 C326.140163,6 383,62.8598368 383,133 C383,203.140163 326.140163,260 256,260 Z M256,228 C308.467051,228 351,185.467051 351,133 C351,80.5329488 308.467051,38 256,38 C203.532949,38 161,80.5329488 161,133 C161,185.467051 203.532949,228 256,228 Z" id="line_user"/>
  <path fill="currentColor" d="M78,506 C69.163444,506 62,498.836556 62,490 L62,413 C62,359.980664 104.980664,317 158,317 L354,317 C407.019336,317 450,359.980664 450,413 L450,490 C450,498.836556 442.836556,506 434,506 C425.163444,506 86.836556,506 78,506 Z M256,260 C185.859837,260 129,203.140163 129,133 C129,62.8598368 185.859837,6 256,6 C326.140163,6 383,62.8598368 383,133 C383,203.140163 326.140163,260 256,260 Z" id="filled_user"/>
</svg>
